<svg xmlns="http://www.w3.org/2000/svg" version="1.0" width="153.000000pt" height="153.000000pt" viewBox="0 0 153.000000 153.000000" preserveAspectRatio="xMidYMid meet">

<g transform="translate(0.000000,153.000000) scale(0.100000,-0.100000)" fill="#ffffff" stroke="none">
<path d="M35 1499 l-35 -31 0 -702 c1 -746 -1 -714 50 -749 22 -16 81 -17 715 -17 758 0 717 -3 750 60 23 44 22 1367 0 1410 -32 62 -7 60 -759 60 l-685 0 -36 -31z m623 -225 c68 -22 144 -91 179 -162 24 -49 28 -69 27 -137 0 -44 -6 -93 -12 -108 l-12 -29 -37 33 c-20 17 -62 44 -93 58 -48 23 -68 26 -160 26 -94 0 -111 -3 -165 -28 -33 -15 -74 -42 -92 -59 l-32 -31 -13 29 c-7 16 -13 67 -13 114 0 73 4 92 27 136 35 66 117 140 177 158 62 20 158 19 219 0z m460 -19 c106 -58 166 -161 166 -285 0 -127 -62 -223 -180 -281 -54 -27 -76 -32 -130 -31 -57 0 -134 17 -134 28 0 2 16 26 36 53 57 80 77 150 72 256 -3 77 -9 100 -37 157 -18 37 -42 75 -52 84 -10 9 -19 21 -19 25 0 17 60 28 140 26 72 -3 93 -7 138 -32z m-464 -394 c27 -11 28 -12 12 -34 -107 -145 -129 -268 -74 -415 11 -29 35 -73 55 -98 19 -25 33 -47 31 -48 -15 -13 -82 -26 -129 -26 -86 0 -163 32 -225 94 -176 177 -93 474 151 537 39 10 142 4 179 -10z m64 -202 c128 -113 351 -114 496 -3 l46 35 12 -28 c6 -15 11 -62 12 -104 1 -68 -3 -83 -34 -145 -104 -203 -368 -236 -522 -65 -54 60 -78 122 -78 204 0 55 17 137 28 137 2 0 20 -14 40 -31z" fill="#ffffff"/>
</g>
</svg>