<svg xmlns="http://www.w3.org/2000/svg" version="1.0" width="687.000000pt" height="293.000000pt" viewBox="0 0 687.000000 293.000000" preserveAspectRatio="xMidYMid meet">

<g transform="translate(0.000000,293.000000) scale(0.100000,-0.100000)" fill="#ffffff" stroke="none">
<path d="M4077 2148 c4 -7 10 -272 13 -588 l5 -575 160 -3 c136 -2 165 0 195 15 58 30 60 38 60 359 0 280 -1 292 -21 318 -35 45 -72 57 -162 56 -45 -1 -88 -1 -94 -1 -10 1 -13 54 -15 214 l-3 212 -73 3 c-59 2 -72 0 -65 -10z m287 -574 c14 -5 16 -35 16 -225 l0 -219 -80 0 -80 0 0 198 c-1 155 -4 201 -15 216 -8 10 -12 23 -9 27 6 10 144 12 168 3z" fill="#ffffff"/>
<path d="M5558 1578 c1 -315 4 -579 7 -585 3 -9 26 -13 65 -13 l60 0 0 89 c0 50 4 92 9 96 6 3 30 -37 55 -90 l46 -95 65 0 c50 0 65 3 65 14 0 8 -25 68 -56 133 -80 168 -104 221 -104 227 0 2 36 80 80 172 44 91 80 173 80 180 0 11 -17 14 -65 14 l-66 0 -45 -95 c-25 -52 -50 -93 -55 -89 -5 3 -9 136 -9 310 l0 304 -67 0 -68 0 3 -572z" fill="#ffffff"/>
<path d="M1071 2107 c-13 -6 -34 -25 -45 -40 -21 -28 -21 -36 -24 -690 -2 -449 0 -674 8 -699 6 -20 24 -48 41 -62 l31 -26 684 0 c752 0 727 -2 759 60 13 25 15 120 15 705 0 744 3 711 -60 749 -25 14 -96 16 -707 16 -518 0 -684 -3 -702 -13z m602 -244 c64 -20 148 -97 178 -165 19 -42 24 -70 24 -138 0 -52 -5 -94 -13 -108 l-13 -23 -37 32 c-20 18 -61 44 -92 58 -48 23 -68 26 -160 26 -92 0 -112 -3 -160 -26 -31 -14 -72 -40 -92 -58 l-37 -32 -13 23 c-8 14 -13 57 -13 113 0 78 4 97 27 140 31 59 104 130 156 152 78 33 154 35 245 6z m448 -13 c62 -32 108 -79 142 -144 27 -53 31 -72 31 -141 1 -68 -3 -89 -27 -137 -53 -107 -169 -182 -283 -181 -54 0 -134 18 -134 29 0 2 16 26 36 53 99 139 99 333 -1 472 -45 63 -43 65 75 83 31 4 123 -15 161 -34z m-479 -390 c49 -14 53 -23 24 -57 -117 -140 -119 -360 -5 -504 17 -22 30 -41 28 -43 -17 -13 -83 -26 -139 -26 -115 0 -224 70 -281 182 -33 64 -37 176 -10 248 58 155 228 243 383 200z m80 -206 c140 -117 343 -121 498 -10 l50 36 12 -27 c7 -16 12 -64 12 -108 1 -95 -24 -155 -89 -220 -59 -60 -125 -89 -212 -93 -104 -6 -162 17 -239 93 -70 69 -94 125 -94 219 0 59 15 136 27 136 3 0 19 -11 35 -26z" fill="#ffffff"/>
<path d="M2814 1689 c3 -17 6 -181 6 -365 l0 -333 35 -7 c19 -3 46 -3 60 0 l25 6 0 272 c0 239 -2 274 -17 290 -15 17 -12 18 80 18 71 0 97 -3 97 -12 1 -7 1 -126 0 -264 0 -139 2 -263 6 -278 5 -20 14 -26 49 -32 79 -11 76 -22 76 281 0 171 -4 272 -11 279 -21 21 -7 26 79 26 74 0 90 -3 95 -17 4 -9 6 -138 6 -287 -2 -304 -5 -294 76 -281 l44 6 0 329 0 330 -29 32 c-28 32 -33 33 -117 37 -112 4 -159 -9 -186 -55 l-20 -34 -22 32 c-34 51 -57 58 -205 58 l-133 0 6 -31z" fill="#ffffff"/>
<path d="M3598 1393 c2 -230 7 -335 15 -353 18 -37 57 -51 169 -58 l100 -7 -1 -125 c0 -69 -1 -131 -1 -137 0 -10 -35 -13 -140 -13 l-141 0 3 -72 3 -73 152 -3 c115 -2 161 1 187 12 68 28 65 3 66 606 l1 545 -57 3 c-39 2 -60 -1 -66 -10 -4 -7 -8 -132 -8 -278 0 -146 0 -273 0 -282 0 -16 -10 -18 -74 -18 -58 0 -75 3 -80 16 -3 9 -6 141 -6 295 l0 279 -62 0 -63 0 3 -327z" fill="#ffffff"/>
<path d="M4644 1711 c-37 -16 -65 -61 -62 -100 l3 -36 138 -3 c79 -1 137 -7 138 -12 1 -6 1 -19 1 -30 0 -11 0 -24 -1 -30 -1 -6 -36 -10 -83 -10 -102 0 -151 -13 -178 -47 -18 -24 -20 -39 -20 -213 0 -187 0 -187 25 -212 33 -34 60 -38 236 -38 l149 0 0 335 0 335 -29 32 -29 33 -134 2 c-73 1 -143 -2 -154 -6z m212 -383 c5 -7 8 -55 6 -106 l-3 -93 -77 3 -77 3 -3 80 c-2 43 -8 85 -13 92 -20 24 2 33 80 33 52 0 82 -4 87 -12z" fill="#ffffff"/>
<path d="M5064 1698 c3 -13 6 -177 6 -365 l0 -342 37 -7 c20 -4 48 -3 62 2 l26 9 3 265 c1 169 -1 267 -8 274 -5 5 -10 16 -10 23 0 11 20 13 88 11 l87 -3 3 -287 2 -287 37 -7 c20 -4 47 -3 60 2 l24 9 -1 328 c0 239 -4 333 -13 348 -25 41 -65 49 -242 49 l-167 0 6 -22z" fill="#ffffff"/>
</g>
</svg>